<?xml version="1.0" standalone="no"?>
<!DOCTYPE svg PUBLIC "-//W3C//DTD SVG 20010904//EN"
 "http://www.w3.org/TR/2001/REC-SVG-20010904/DTD/svg10.dtd">
<svg version="1.0" xmlns="http://www.w3.org/2000/svg"
 width="512.000000pt" height="512.000000pt" viewBox="0 0 512.000000 512.000000"
 preserveAspectRatio="xMidYMid meet">

<g transform="translate(0.000000,512.000000) scale(0.100000,-0.100000)"
fill="#f6f6f6" stroke="none">
<path d="M3790 4261 c-74 -24 -119 -63 -145 -123 -20 -48 -19 -130 1 -171 9
-18 84 -100 167 -184 l151 -152 -660 -3 c-645 -4 -661 -4 -739 -26 -328 -91
-568 -347 -629 -671 -22 -115 -22 -397 0 -449 19 -47 58 -88 108 -114 31 -16
53 -19 102 -16 78 5 136 41 174 108 23 42 25 56 30 235 l5 190 34 70 c38 76
103 148 171 188 96 56 109 57 784 57 l621 0 -152 -152 c-163 -164 -183 -194
-183 -278 0 -113 97 -210 210 -210 82 0 90 7 459 373 233 233 360 366 372 392
23 49 24 123 4 173 -20 46 -682 714 -737 743 -44 23 -112 32 -148 20z"/>
<path d="M2900 2754 c-46 -20 -77 -50 -103 -99 -19 -35 -22 -62 -27 -230 l-5
-190 -34 -70 c-38 -76 -103 -148 -171 -188 -96 -56 -109 -57 -784 -57 l-620 0
152 153 c90 91 157 167 167 190 71 172 -103 352 -273 282 -46 -19 -724 -692
-753 -747 -23 -45 -25 -124 -4 -176 20 -48 682 -714 740 -744 90 -47 208 -17
269 70 38 54 48 149 21 203 -9 19 -85 102 -168 186 l-151 152 660 3 c638 4
661 5 736 25 263 74 456 235 567 475 62 132 73 189 78 402 4 129 2 201 -6 227
-15 49 -63 104 -112 130 -46 23 -129 25 -179 3z"/>
</g>
</svg>
